<svg height="512pt" viewBox="0 -1 512.00001 512" width="512pt" xmlns="http://www.w3.org/2000/svg"><path d="m75.035156 175.304688h364.023438v264.828124h-364.023438zm0 0" fill="#95a5a5"/><path d="m406.070312 190.753906h61.792969v230.992188h-61.792969zm0 0" fill="#d1d4d1"/><path d="m105.929688 417.632812h-61.792969v-218.792968h61.792969zm0 0" fill="#d1d4d1"/><g fill="#bdc3c7"><path d="m388.414062 170.890625h97.101563v22.070313c0 9.75-7.902344 17.652343-17.652344 17.652343h-61.792969c-9.753906 0-17.65625-7.902343-17.65625-17.652343zm0 0"/><path d="m406.070312 404.820312h61.792969c9.75 0 17.652344 7.90625 17.652344 17.65625v22.070313h-97.101563v-22.070313c0-9.75 7.902344-17.65625 17.65625-17.65625zm0 0"/><path d="m105.929688 210.613281h-61.792969c-9.75 0-17.652344-7.902343-17.652344-17.652343v-22.070313h97.101563v22.070313c0 9.75-7.902344 17.652343-17.65625 17.652343zm0 0"/><path d="m123.585938 444.546875h-97.101563v-22.070313c0-9.75 7.902344-17.65625 17.652344-17.65625h61.792969c9.753906 0 17.65625 7.90625 17.65625 17.65625zm0 0"/></g><path d="m17.65625 128.519531h485.515625v37.957031c0 4.875-3.953125 8.828126-8.828125 8.828126h-467.859375c-4.875 0-8.828125-3.953126-8.828125-8.828126zm0 0" fill="#285680"/><path d="m26.484375 440.132812h467.859375c4.875 0 8.828125 3.953126 8.828125 8.828126v44.136718h-485.515625v-44.136718c0-4.875 3.953125-8.828126 8.828125-8.828126zm0 0" fill="#285680"/><path d="m503.171875 139.996094h-494.34375c-4.875 0-8.828125-3.953125-8.828125-8.828125v-46.460938c-.00390625-3.859375 2.5-7.273437 6.179688-8.429687l241.972656-75.085938c5.113281-1.589844 10.582031-1.589844 15.695312 0l241.972656 75.085938c3.679688 1.15625 6.183594 4.570312 6.179688 8.429687v46.460938c0 4.875-3.953125 8.828125-8.828125 8.828125zm0 0" fill="#4482c3"/><path d="m35.308594 104.683594v-.46875l218.042968-67.679688c1.703126-.527344 3.523438-.527344 5.226563 0l218.113281 67.679688v.46875zm0 0" fill="#285680"/><path d="m353.101562 307.71875c0 53.628906-43.472656 97.101562-97.101562 97.101562s-97.101562-43.472656-97.101562-97.101562 43.472656-97.105469 97.101562-97.105469 97.101562 43.476563 97.101562 97.105469zm0 0" fill="#7ed09e"/><path d="m256 316.546875c-19.5 0-35.308594-15.808594-35.308594-35.3125 0-19.5 15.808594-35.308594 35.308594-35.308594s35.308594 15.808594 35.308594 35.308594c0 4.875-3.949219 8.828125-8.824219 8.828125s-8.828125-3.953125-8.828125-8.828125c0-9.75-7.90625-17.652344-17.65625-17.652344s-17.65625 7.902344-17.65625 17.652344c0 9.753906 7.90625 17.65625 17.65625 17.65625 4.875 0 8.828125 3.953125 8.828125 8.828125s-3.953125 8.828125-8.828125 8.828125zm0 0" fill="#24ae5f"/><path d="m256 369.511719c-19.5 0-35.308594-15.808594-35.308594-35.308594 0-4.878906 3.949219-8.828125 8.824219-8.828125 4.878906 0 8.828125 3.949219 8.828125 8.828125 0 9.75 7.90625 17.652344 17.65625 17.652344s17.65625-7.902344 17.65625-17.652344c0-9.753906-7.90625-17.65625-17.65625-17.65625-4.875 0-8.828125-3.953125-8.828125-8.828125s3.953125-8.828125 8.828125-8.828125c19.5 0 35.308594 15.808594 35.308594 35.3125 0 19.5-15.808594 35.308594-35.308594 35.308594zm0 0" fill="#24ae5f"/><path d="m256 378.339844c-4.875 0-8.828125-3.953125-8.828125-8.828125v-123.585938c0-4.875 3.953125-8.828125 8.828125-8.828125s8.828125 3.953125 8.828125 8.828125v123.585938c0 4.875-3.953125 8.828125-8.828125 8.828125zm0 0" fill="#24ae5f"/><path d="m8.828125 475.441406h494.34375c4.875 0 8.828125 3.953125 8.828125 8.828125v17.65625c0 4.875-3.953125 8.828125-8.828125 8.828125h-494.34375c-4.875 0-8.828125-3.953125-8.828125-8.828125v-17.65625c0-4.875 3.953125-8.828125 8.828125-8.828125zm0 0" fill="#4482c3"/></svg>